# xmcd
#
# Track frame offsets: 
#        150
#        24732
#        45662
#        87443
#        114653
#        146598
#        197061
#        232282
#
# Disc length: 3620 seconds
#
# Revision: 0
# Processed by: cddbd v1.5.1PL0 Copyright (c) Steve Scherf et al.
# Submitted via: ExactAudioCopy v0.95b1
#
DISCID=720e2208
DTITLE=Eric Clapton - Zenith Toulouse 26-02-2001 (Disk 2)
DYEAR=2001
DGENRE=Blues
TTITLE0=White Room
TTITLE1=Hoochie Coochie Man
TTITLE2=Five Long Years
TTITLE3=Cocaine
TTITLE4=Wonderful Tonight
TTITLE5=Layla
TTITLE6=Sunshine Of Your Love
TTITLE7=Somewhere Over The Rainbow
EXTD=
EXTT0=
EXTT1=
EXTT2=
EXTT3=
EXTT4=
EXTT5=
EXTT6=
EXTT7=
PLAYORDER=
